<?xml version="1.0" encoding="UTF-8" standalone="no"?>
<!-- Generator: Adobe Illustrator 15.1.0, SVG Export Plug-In . SVG Version: 6.00 Build 0)  -->

<svg
   xmlns:dc="http://purl.org/dc/elements/1.1/"
   xmlns:cc="http://creativecommons.org/ns#"
   xmlns:rdf="http://www.w3.org/1999/02/22-rdf-syntax-ns#"
   xmlns:svg="http://www.w3.org/2000/svg"
   xmlns="http://www.w3.org/2000/svg"
   xmlns:sodipodi="http://sodipodi.sourceforge.net/DTD/sodipodi-0.dtd"
   xmlns:inkscape="http://www.inkscape.org/namespaces/inkscape"
   version="1.1"
   id="Layer_1"
   x="0px"
   y="0px"
   width="512px"
   height="512px"
   viewBox="0 0 512 512"
   enable-background="new 0 0 512 512"
   xml:space="preserve"
   inkscape:version="0.91 r13725"
   sodipodi:docname="clear-night.svg"><metadata
     id="metadata76"><rdf:RDF><cc:Work
         rdf:about=""><dc:format>image/svg+xml</dc:format><dc:type
           rdf:resource="http://purl.org/dc/dcmitype/StillImage" /></cc:Work></rdf:RDF></metadata><defs
     id="defs74" /><sodipodi:namedview
     pagecolor="#ffffff"
     bordercolor="#666666"
     borderopacity="1"
     objecttolerance="10"
     gridtolerance="10"
     guidetolerance="10"
     inkscape:pageopacity="0"
     inkscape:pageshadow="2"
     inkscape:window-width="792"
     inkscape:window-height="480"
     id="namedview72"
     showgrid="false"
     inkscape:zoom="0.4609375"
     inkscape:cx="256"
     inkscape:cy="256"
     inkscape:window-x="0"
     inkscape:window-y="0"
     inkscape:window-maximized="0"
     inkscape:current-layer="Layer_1" /><path
     fill="#1D1D1B"
     d="M349.852,343.15c-49.876,49.916-131.083,49.916-181,0c-49.916-49.917-49.916-131.125,0-181.021  c13.209-13.187,29.312-23.25,47.832-29.812c5.834-2.042,12.293-0.562,16.625,3.792c4.376,4.375,5.855,10.833,3.793,16.625  c-12.542,35.375-4,73.666,22.249,99.917c26.209,26.228,64.501,34.75,99.917,22.25c5.792-2.062,12.271-0.583,16.625,3.792  c4.376,4.333,5.834,10.812,3.771,16.625C373.143,313.838,363.06,329.941,349.852,343.15z M191.477,184.754  c-37.438,37.438-37.438,98.354,0,135.771c40,40.021,108.125,36.417,143-8.167c-35.959,2.25-71.375-10.729-97.75-37.084  c-26.375-26.354-39.333-61.771-37.084-97.729C196.769,179.796,194.039,182.192,191.477,184.754z"
     id="path70"
     style="fill:#ffffff" /></svg>