<?xml version="1.0" encoding="UTF-8" standalone="no"?>
<!-- Generator: Adobe Illustrator 15.1.0, SVG Export Plug-In . SVG Version: 6.00 Build 0)  -->

<svg
   xmlns:dc="http://purl.org/dc/elements/1.1/"
   xmlns:cc="http://creativecommons.org/ns#"
   xmlns:rdf="http://www.w3.org/1999/02/22-rdf-syntax-ns#"
   xmlns:svg="http://www.w3.org/2000/svg"
   xmlns="http://www.w3.org/2000/svg"
   xmlns:sodipodi="http://sodipodi.sourceforge.net/DTD/sodipodi-0.dtd"
   xmlns:inkscape="http://www.inkscape.org/namespaces/inkscape"
   version="1.1"
   id="Layer_1"
   x="0px"
   y="0px"
   width="512px"
   height="512px"
   viewBox="0 0 512 512"
   enable-background="new 0 0 512 512"
   xml:space="preserve"
   inkscape:version="0.91 r13725"
   sodipodi:docname="fog.svg"><metadata
     id="metadata80"><rdf:RDF><cc:Work
         rdf:about=""><dc:format>image/svg+xml</dc:format><dc:type
           rdf:resource="http://purl.org/dc/dcmitype/StillImage" /></cc:Work></rdf:RDF></metadata><defs
     id="defs78" /><sodipodi:namedview
     pagecolor="#ffffff"
     bordercolor="#666666"
     borderopacity="1"
     objecttolerance="10"
     gridtolerance="10"
     guidetolerance="10"
     inkscape:pageopacity="0"
     inkscape:pageshadow="2"
     inkscape:window-width="792"
     inkscape:window-height="480"
     id="namedview76"
     showgrid="false"
     inkscape:zoom="0.4609375"
     inkscape:cx="256"
     inkscape:cy="256"
     inkscape:window-x="0"
     inkscape:window-y="0"
     inkscape:window-maximized="0"
     inkscape:current-layer="Layer_1" /><g
     id="g70"
     style="fill:#ffffff"><g
       id="g72"
       style="fill:#ffffff"><path
         fill-rule="evenodd"
         clip-rule="evenodd"
         fill="#1D1D1B"
         d="M33.604,256C32.562,250.833,32,245.479,32,240    c0-44.188,35.812-80,80-80c10.812,0,21.062,2.208,30.438,6.083C163.667,124.667,206.291,96,256,96s92.334,28.667,113.541,70.083    C378.938,162.208,389.209,160,400,160c44.188,0,80,35.812,80,80c0,5.479-0.562,10.833-1.625,16h32    c0.792-5.271,1.625-10.521,1.625-16c0-61.75-50.25-112-112-112c-5.312,0-10.562,0.375-15.792,1.125    C354.334,88.417,307.188,64,256,64s-98.312,24.417-128.208,65.125C122.562,128.375,117.312,128,112,128C50.25,128,0,178.25,0,240    c0,5.479,0.854,10.729,1.625,16H33.604z M496,288H16c-8.833,0-16,7.167-16,16s7.167,16,16,16h480c8.833,0,16-7.167,16-16    S504.833,288,496,288z M496,352H16c-8.833,0-16,7.167-16,16s7.167,16,16,16h480c8.833,0,16-7.167,16-16S504.833,352,496,352z     M496,416H16c-8.833,0-16,7.167-16,16s7.167,16,16,16h480c8.833,0,16-7.167,16-16S504.833,416,496,416z"
         id="path74"
         style="fill:#ffffff" /></g></g></svg>