<?xml version="1.0" encoding="UTF-8" standalone="no"?>
<!DOCTYPE svg PUBLIC "-//W3C//DTD SVG 1.1//EN" "http://www.w3.org/Graphics/SVG/1.1/DTD/svg11.dtd">
<svg width="100%" height="100%" viewBox="0 0 36 53" version="1.1" xmlns="http://www.w3.org/2000/svg" xmlns:xlink="http://www.w3.org/1999/xlink" xml:space="preserve" xmlns:serif="http://www.serif.com/" style="fill-rule:evenodd;clip-rule:evenodd;stroke-linecap:round;stroke-linejoin:round;stroke-miterlimit:10;">
    <g transform="matrix(1,0,0,1,-355.891,-379.195)">
        <g id="icon_humidity" transform="matrix(1.2,0,0,1.2,98.8566,-452.125)">
            <path id="path12" d="M234.005,694.288C233.689,694.299 233.396,694.458 233.216,694.718C233.216,694.718 232.696,695.469 232.173,696.371C231.911,696.822 231.646,697.313 231.435,697.795C231.223,698.276 231.038,698.709 231.038,699.287C231.038,700.933 232.393,702.288 234.038,702.288C235.683,702.288 237.038,700.933 237.038,699.287C237.038,698.709 236.853,698.276 236.642,697.795C236.43,697.313 236.165,696.822 235.904,696.371C235.38,695.469 234.861,694.718 234.861,694.718C234.667,694.439 234.344,694.277 234.005,694.288ZM234.038,697.16C234.104,697.27 234.106,697.259 234.173,697.375C234.411,697.786 234.646,698.227 234.81,698.6C234.973,698.972 235.038,699.313 235.038,699.287C235.038,699.852 234.602,700.287 234.038,700.287C233.474,700.287 233.038,699.852 233.038,699.287C233.038,699.313 233.103,698.972 233.267,698.6C233.43,698.227 233.665,697.786 233.904,697.375C233.971,697.259 233.972,697.27 234.038,697.16Z" style="fill:rgb(245,245,246);fill-rule:nonzero;"/>
            <path id="path14" d="M241.005,699.288C240.689,699.299 240.396,699.458 240.216,699.718C240.216,699.718 239.696,700.469 239.173,701.371C238.911,701.822 238.646,702.313 238.435,702.795C238.223,703.276 238.038,703.709 238.038,704.287C238.038,705.933 239.393,707.288 241.038,707.288C242.683,707.288 244.038,705.933 244.038,704.287C244.038,703.709 243.853,703.276 243.642,702.795C243.43,702.313 243.165,701.822 242.904,701.371C242.38,700.469 241.861,699.718 241.861,699.718C241.667,699.439 241.344,699.277 241.005,699.288ZM241.038,702.16C241.104,702.27 241.106,702.259 241.173,702.375C241.411,702.786 241.646,703.227 241.81,703.6C241.973,703.972 242.038,704.313 242.038,704.287C242.038,704.852 241.602,705.287 241.038,705.287C240.474,705.287 240.038,704.852 240.038,704.287C240.038,704.313 240.103,703.972 240.267,703.6C240.43,703.227 240.665,702.786 240.904,702.375C240.971,702.259 240.972,702.27 241.038,702.16Z" style="fill:rgb(245,245,246);fill-rule:nonzero;"/>
            <path id="path4564" d="M227.119,720.764L227.119,697.818C227.119,695.607 225.327,693.817 223.118,693.817C220.909,693.817 219.116,695.607 219.116,697.818L219.116,720.764C216.802,722.135 215.245,724.65 215.245,727.534C215.245,731.882 218.77,735.406 223.117,735.406C227.464,735.406 230.989,731.882 230.989,727.534C230.989,724.65 229.432,722.135 227.119,720.764Z" style="fill:none;fill-rule:nonzero;stroke:rgb(225,226,225);stroke-opacity:0.5;stroke-width:2.1px;"/>
            <path id="path4566" d="M224.724,722.084L224.724,710.38C224.724,709.492 224.004,708.773 223.117,708.773C222.23,708.773 221.51,709.493 221.51,710.38L221.51,722.084C219.153,722.777 217.431,724.953 217.431,727.535C217.431,730.676 219.977,733.221 223.117,733.221C226.257,733.221 228.803,730.676 228.803,727.535C228.802,724.953 227.08,722.777 224.724,722.084Z" style="fill:rgb(245,245,246);fill-rule:nonzero;"/>
        </g>
    </g>
</svg>
