<?xml version="1.0" encoding="UTF-8" standalone="no"?>
<!DOCTYPE svg PUBLIC "-//W3C//DTD SVG 1.1//EN" "http://www.w3.org/Graphics/SVG/1.1/DTD/svg11.dtd">
<svg width="100%" height="100%" viewBox="0 0 34 46" version="1.1" xmlns="http://www.w3.org/2000/svg" xmlns:xlink="http://www.w3.org/1999/xlink" xml:space="preserve" xmlns:serif="http://www.serif.com/" style="fill-rule:evenodd;clip-rule:evenodd;stroke-linejoin:round;stroke-miterlimit:2;">
    <g transform="matrix(1,0,0,1,-349.151,-461.926)">
        <g id="icon_precipitation" transform="matrix(1.2,0,0,1.2,90.9699,-455.22)">
            <path id="path6-6" d="M229.34,802.053L229.339,802.053C222.327,802.052 216.589,797.269 215.385,790.421C214.729,786.685 215.452,783.268 217.536,780.267C219.026,778.115 220.618,775.998 222.158,773.951C222.917,772.943 223.675,771.934 224.424,770.919L224.528,770.778C225.707,769.18 226.821,767.672 227.159,765.851C227.325,765.087 227.981,764.443 228.694,764.312L228.964,764.288C229.663,764.288 230.55,764.839 230.756,765.66C231.388,768.288 233.04,770.32 234.79,772.47C235.419,773.243 236.069,774.042 236.673,774.875C238.272,777.062 239.964,779.426 241.482,781.868C242.644,783.76 243.204,785.913 243.061,787.942C242.996,795.343 237.458,801.519 230.434,802.014C230.066,802.04 229.701,802.053 229.34,802.053L229.34,802.053ZM229.011,768.861C228.39,770.148 227.549,771.286 226.726,772.401L226.622,772.542C225.869,773.563 225.105,774.578 224.341,775.593C222.817,777.62 221.241,779.715 219.78,781.824C218.122,784.214 217.549,786.947 218.075,789.949C219.046,795.466 223.678,799.32 229.339,799.321L229.34,799.321C229.638,799.321 229.938,799.311 230.242,799.289C235.771,798.9 240.296,793.782 240.33,787.88L240.334,787.786C240.444,786.332 240.015,784.7 239.157,783.306C237.691,780.945 236.035,778.632 234.465,776.484C233.902,775.708 233.304,774.973 232.671,774.195C231.335,772.552 229.965,770.868 229.012,768.861L229.011,768.861Z" style="fill:rgb(225,226,225);fill-opacity:0.5;fill-rule:nonzero;"/>
            <g id="g10" transform="matrix(0.621656,0,0,0.621656,209.224,763.278)">
                <path id="path12-9" d="M20.562,30.522C20.562,30.511 20.551,30.511 20.551,30.5C20.562,30.467 20.584,30.434 20.606,30.412C20.595,30.445 20.573,30.489 20.562,30.522Z" style="fill:rgb(245,245,246);fill-rule:nonzero;"/>
                <path id="path14-6" d="M43.084,30.522C43.062,30.467 43.04,30.412 43.007,30.357C43.04,30.401 43.073,30.434 43.095,30.478C43.095,30.489 43.095,30.511 43.084,30.522Z" style="fill:rgb(245,245,246);fill-rule:nonzero;"/>
                <path id="path16" d="M46.765,38.421C46.776,38.685 46.776,38.926 46.754,39.168L46.743,39.553C46.699,47.364 40.788,54.132 33.581,54.638C33.164,54.671 32.757,54.682 32.362,54.682C24.88,54.682 18.761,49.606 17.486,42.333C17.233,40.905 17.167,39.553 17.288,38.257C18.793,37.62 19.969,36.4 20.562,34.873C21.43,37.136 23.616,38.74 26.187,38.74C28.758,38.74 30.944,37.136 31.812,34.873C32.691,37.136 34.877,38.74 37.448,38.74C40.019,38.74 42.205,37.136 43.084,34.873C43.721,36.532 45.073,37.839 46.765,38.421Z" style="fill:rgb(245,245,246);fill-rule:nonzero;"/>
            </g>
        </g>
    </g>
</svg>
