<?xml version="1.0" encoding="UTF-8" standalone="no"?>
<!-- Generator: Adobe Illustrator 15.1.0, SVG Export Plug-In . SVG Version: 6.00 Build 0)  -->

<svg
   xmlns:dc="http://purl.org/dc/elements/1.1/"
   xmlns:cc="http://creativecommons.org/ns#"
   xmlns:rdf="http://www.w3.org/1999/02/22-rdf-syntax-ns#"
   xmlns:svg="http://www.w3.org/2000/svg"
   xmlns="http://www.w3.org/2000/svg"
   xmlns:sodipodi="http://sodipodi.sourceforge.net/DTD/sodipodi-0.dtd"
   xmlns:inkscape="http://www.inkscape.org/namespaces/inkscape"
   version="1.1"
   id="Layer_1"
   x="0px"
   y="0px"
   width="512px"
   height="512px"
   viewBox="0 0 512 512"
   enable-background="new 0 0 512 512"
   xml:space="preserve"
   inkscape:version="0.91 r13725"
   sodipodi:docname="wind.svg"><metadata
     id="metadata80"><rdf:RDF><cc:Work
         rdf:about=""><dc:format>image/svg+xml</dc:format><dc:type
           rdf:resource="http://purl.org/dc/dcmitype/StillImage" /></cc:Work></rdf:RDF></metadata><defs
     id="defs78" /><sodipodi:namedview
     pagecolor="#ffffff"
     bordercolor="#666666"
     borderopacity="1"
     objecttolerance="10"
     gridtolerance="10"
     guidetolerance="10"
     inkscape:pageopacity="0"
     inkscape:pageshadow="2"
     inkscape:window-width="792"
     inkscape:window-height="480"
     id="namedview76"
     showgrid="false"
     inkscape:zoom="0.4609375"
     inkscape:cx="256"
     inkscape:cy="256"
     inkscape:window-x="0"
     inkscape:window-y="0"
     inkscape:window-maximized="0"
     inkscape:current-layer="Layer_1" /><g
     id="g70"
     style="fill:#ffffff"><g
       id="g72"
       style="fill:#ffffff"><path
         fill="#1D1D1B"
         d="M431,192c-26.5,0-48,21.5-48,48c0,5.646,1.167,10.958,2.938,16H79c-8.833,0-16,7.167-16,16s7.167,16,16,16    h352c26.5,0,48-21.5,48-48S457.5,192,431,192z M79,224h192c26.5,0,48-21.5,48-48s-21.5-48-48-48s-48,21.5-48,48    c0,5.646,1.167,10.958,2.938,16H79c-8.833,0-16,7.167-16,16S70.167,224,79,224z M335,320c-0.938,0-1.834,0.208-2.791,0.291    c-0.625-0.041-1.146-0.291-1.771-0.291H83.584C72.209,320,63,327.167,63,336s9.209,16,20.584,16h206.354    c-1.771,5.042-2.938,10.376-2.938,16c0,26.5,21.5,48,48,48s48-21.5,48-48S361.5,320,335,320z"
         id="path74"
         style="fill:#ffffff" /></g></g></svg>