<?xml version="1.0" encoding="UTF-8" standalone="no"?>
<!-- Created with Inkscape (http://www.inkscape.org/) -->

<svg
   xmlns:dc="http://purl.org/dc/elements/1.1/"
   xmlns:cc="http://creativecommons.org/ns#"
   xmlns:rdf="http://www.w3.org/1999/02/22-rdf-syntax-ns#"
   xmlns:svg="http://www.w3.org/2000/svg"
   xmlns="http://www.w3.org/2000/svg"
   xmlns:xlink="http://www.w3.org/1999/xlink"
   xmlns:sodipodi="http://sodipodi.sourceforge.net/DTD/sodipodi-0.dtd"
   xmlns:inkscape="http://www.inkscape.org/namespaces/inkscape"
   width="970.5332"
   height="119.64642"
   id="svg2"
   version="1.1"
   inkscape:version="0.92.4 5da689c313, 2019-01-14"
   sodipodi:docname="presence_section.svg">
  <defs
     id="defs4">
    <linearGradient
       inkscape:collect="always"
       id="linearGradient4150">
      <stop
         style="stop-color:#102027;stop-opacity:1"
         offset="0"
         id="stop4152" />
      <stop
         id="stop4293"
         offset="0.60278893"
         style="stop-color:#e1e2e1;stop-opacity:1" />
      <stop
         style="stop-color:#37474f;stop-opacity:1"
         offset="1"
         id="stop4154" />
    </linearGradient>
    <linearGradient
       inkscape:collect="always"
       xlink:href="#linearGradient4150"
       id="linearGradient4156"
       x1="19.285715"
       y1="748.79071"
       x2="1005.7143"
       y2="750.17938"
       gradientUnits="userSpaceOnUse"
       gradientTransform="matrix(1,0,0,0.64840579,0,200.47548)" />
  </defs>
  <sodipodi:namedview
     id="base"
     pagecolor="#ffffff"
     bordercolor="#666666"
     borderopacity="1.0"
     inkscape:pageopacity="0.0"
     inkscape:pageshadow="2"
     inkscape:zoom="2.8793306"
     inkscape:cx="465.91521"
     inkscape:cy="20.824187"
     inkscape:document-units="px"
     inkscape:current-layer="layer1"
     showgrid="false"
     units="px"
     fit-margin-top="0"
     fit-margin-left="0"
     fit-margin-right="0"
     fit-margin-bottom="0"
     inkscape:window-width="3840"
     inkscape:window-height="2080"
     inkscape:window-x="0"
     inkscape:window-y="50"
     inkscape:window-maximized="1"
     inkscape:object-paths="true"
     inkscape:snap-intersection-paths="true"
     inkscape:object-nodes="true"
     inkscape:snap-smooth-nodes="true"
     showborder="false"
     inkscape:pagecheckerboard="true" />
  <metadata
     id="metadata7">
    <rdf:RDF>
      <cc:Work
         rdf:about="">
        <dc:format>image/svg+xml</dc:format>
        <dc:type
           rdf:resource="http://purl.org/dc/dcmitype/StillImage" />
        <dc:title></dc:title>
      </cc:Work>
    </rdf:RDF>
  </metadata>
  <g
     inkscape:label="Layer 1"
     inkscape:groupmode="layer"
     id="layer1"
     transform="translate(0.18249178,-855.04254)">
    <rect
       style="opacity:1;fill:#ffffff;fill-opacity:1;stroke:none;stroke-width:3;stroke-linecap:butt;stroke-linejoin:round;stroke-miterlimit:4;stroke-dasharray:36, 36;stroke-dashoffset:0;stroke-opacity:1"
       id="rect4174"
       width="970.5332"
       height="119.64642"
       x="-0.18249178"
       y="855.04254"
       rx="0"
       ry="0" />
    <path
       style="fill:none"
       inkscape:connector-curvature="0"
       id="path8-4"
       d="m 72.486559,882.09703 c 0.093,4.212 6.333997,7.611 14.022997,7.611 7.689,0 13.931004,-3.399 14.023004,-7.611 11.343,1.037 20.288,10.273 20.916,21.728 5.065,-7.054 8.061,-15.69 8.061,-25.018 0,-23.71 -19.289,-43 -42.999004,-43 -23.710997,0 -43.000997,19.29 -43.000997,43 0,9.327 2.995,17.964 8.061,25.018 0.628,-11.455 9.576,-20.691 20.916,-21.728 z m -4.093,-26.53 c 1.293,-8.937 8.624997,-15.785 17.476997,-15.785 8.85,0 16.181004,6.845 17.477004,15.778 0.133,0.923 0.203,1.868 0.203,2.83 0,0.962 -0.07,1.908 -0.203,2.831 -0.965,12.852 -8.421004,22.852 -17.477004,22.852 -8.938,0 -16.317997,-9.745 -17.433997,-22.359 -0.016,-0.166 -0.029,-0.332 -0.043,-0.498 -0.078,-0.547 -0.132,-1.102 -0.164,-1.664 -0.023,-0.384 -0.037,-0.77 -0.037,-1.16 -0.001,-0.96 0.068,-1.904 0.201,-2.825 z" />
  </g>
</svg>
