<?xml version="1.0" encoding="UTF-8" standalone="no"?>
<!DOCTYPE svg PUBLIC "-//W3C//DTD SVG 1.1//EN" "http://www.w3.org/Graphics/SVG/1.1/DTD/svg11.dtd">
<svg width="100%" height="100%" viewBox="0 0 384 284" version="1.1" xmlns="http://www.w3.org/2000/svg" xmlns:xlink="http://www.w3.org/1999/xlink" xml:space="preserve" xmlns:serif="http://www.serif.com/" style="fill-rule:evenodd;clip-rule:evenodd;stroke-linejoin:round;stroke-miterlimit:2;">
    <g transform="matrix(1,0,0,1,0,-0.386993)">
        <g>
            <path d="M270.645,207.789C280.812,207.789 289.062,200.172 289.062,190.004C289.062,137.469 246.312,95.039 193.77,95.039C141.223,95.039 98.477,137.316 98.477,189.852C98.477,200.02 106.727,207.797 116.895,207.797L270.645,207.797L270.645,207.789Z" style="fill:white;fill-rule:nonzero;"/>
            <path d="M362.266,283.613L16.848,283.613C7.547,283.613 0,276.062 0,266.762C0,257.461 7.547,249.914 16.848,249.914L362.266,249.914C371.566,249.914 379.113,257.461 379.113,266.762C379.113,276.062 371.566,283.613 362.266,283.613Z" style="fill:white;fill-rule:nonzero;"/>
            <path d="M193.77,67.324C183.5,67.324 176.918,59 176.918,48.738L176.918,18.98C176.918,8.711 183.5,0.387 193.77,0.387C204.039,0.387 210.617,8.711 210.617,18.98L210.617,48.73C210.617,59 204.039,67.324 193.77,67.324Z" style="fill:white;fill-rule:nonzero;"/>
            <path d="M280.965,103.441C273.695,96.18 273.695,84.41 280.965,77.145L301.992,56.109C309.246,48.855 321.035,48.855 328.289,56.109C335.551,63.371 335.551,75.148 328.289,82.402L307.258,103.441C299.98,110.703 288.219,110.703 280.965,103.441Z" style="fill:white;fill-rule:nonzero;"/>
            <path d="M365.406,174.09L335.66,174.09C325.391,174.09 317.066,180.762 317.066,191.031C317.066,200.695 324.473,207.789 333.898,207.789L365.406,207.789C375.676,207.789 384,201.211 384,190.938C384,180.668 375.676,174.09 365.406,174.09Z" style="fill:white;fill-rule:nonzero;"/>
            <path d="M70.465,190.938C70.465,180.668 62.141,174.09 51.871,174.09L22.133,174.09C11.863,174.09 3.539,180.668 3.539,190.938C3.539,201.211 11.863,207.789 22.133,207.789L51.879,207.789C62.141,207.789 70.465,201.199 70.465,190.938Z" style="fill:white;fill-rule:nonzero;"/>
            <path d="M106.582,103.441C113.844,96.18 113.844,84.41 106.582,77.145L85.543,56.109C78.281,48.855 66.512,48.855 59.25,56.109C51.988,63.371 51.988,75.148 59.25,82.402L80.289,103.441C87.551,110.711 99.32,110.711 106.582,103.441Z" style="fill:white;fill-rule:nonzero;"/>
        </g>
    </g>
</svg>
